<svg xmlns="http://www.w3.org/2000/svg" xmlns:xlink="http://www.w3.org/1999/xlink" width="90.73" height="83" viewBox="0 0 90.73 83">
  <defs>
    <filter id="Elipse_11489" x="0" y="0" width="83" height="83" filterUnits="userSpaceOnUse">
      <feOffset dy="3" input="SourceAlpha"/>
      <feGaussianBlur stdDeviation="3" result="blur"/>
      <feFlood flood-opacity="0.161"/>
      <feComposite operator="in" in2="blur"/>
    </filter>
    <filter id="Elipse_11489-2" x="0" y="0" width="83" height="83" filterUnits="userSpaceOnUse">
      <feOffset dy="3" input="SourceAlpha"/>
      <feGaussianBlur stdDeviation="3" result="blur-2"/>
      <feFlood flood-opacity="0.161" result="color"/>
      <feComposite operator="out" in="SourceGraphic" in2="blur-2"/>
      <feComposite operator="in" in="color"/>
      <feComposite operator="in" in2="SourceGraphic"/>
    </filter>
    <filter id="Trazado_899820" x="47.73" y="8" width="43" height="43" filterUnits="userSpaceOnUse">
      <feOffset dy="3" input="SourceAlpha"/>
      <feGaussianBlur stdDeviation="3" result="blur-3"/>
      <feFlood flood-opacity="0.161"/>
      <feComposite operator="in" in2="blur-3"/>
    </filter>
    <filter id="Trazado_899820-2" x="47.73" y="8" width="43" height="43" filterUnits="userSpaceOnUse">
      <feOffset dy="3" input="SourceAlpha"/>
      <feGaussianBlur stdDeviation="3" result="blur-4"/>
      <feFlood flood-opacity="0.161" result="color-2"/>
      <feComposite operator="out" in="SourceGraphic" in2="blur-4"/>
      <feComposite operator="in" in="color-2"/>
      <feComposite operator="in" in2="SourceGraphic"/>
    </filter>
  </defs>
  <g id="Grupo_1110735" data-name="Grupo 1110735" transform="translate(-172 -2033)">
    <g data-type="innerShadowGroup">
      <g transform="matrix(1, 0, 0, 1, 172, 2033)" filter="url(#Elipse_11489)">
        <g id="Elipse_11489-3" data-name="Elipse 11489" transform="translate(9 6)" fill="#efd42f" stroke="#fff" stroke-width="4">
          <circle cx="32.5" cy="32.5" r="32.5" stroke="none"/>
          <circle cx="32.5" cy="32.5" r="30.5" fill="none"/>
        </g>
      </g>
      <circle id="Elipse_11489-4" data-name="Elipse 11489" cx="32.5" cy="32.5" r="32.5" transform="translate(181 2039)" fill="#efd42f"/>
      <g transform="matrix(1, 0, 0, 1, 172, 2033)" filter="url(#Elipse_11489-2)">
        <circle id="Elipse_11489-5" data-name="Elipse 11489" cx="32.5" cy="32.5" r="32.5" transform="translate(9 6)" fill="#fff"/>
      </g>
      <g id="Elipse_11489-6" data-name="Elipse 11489" transform="translate(181 2039)" fill="none" stroke="#fff" stroke-width="4">
        <circle cx="32.5" cy="32.5" r="32.5" stroke="none"/>
        <circle cx="32.5" cy="32.5" r="30.5" fill="none"/>
      </g>
    </g>
    <g data-type="innerShadowGroup">
      <g transform="matrix(1, 0, 0, 1, 172, 2033)" filter="url(#Trazado_899820)">
        <g id="Trazado_899820-3" data-name="Trazado 899820" transform="translate(56.73 14)" fill="#efd42f">
          <path d="M 12.5 23 C 6.710279941558838 23 2 18.28972053527832 2 12.5 C 2 6.710279941558838 6.710279941558838 2 12.5 2 C 18.28972053527832 2 23 6.710279941558838 23 12.5 C 23 18.28972053527832 18.28972053527832 23 12.5 23 Z" stroke="none"/>
          <path d="M 12.5 4 C 7.813079833984375 4 4 7.813079833984375 4 12.5 C 4 17.18692016601562 7.813079833984375 21 12.5 21 C 17.18692016601562 21 21 17.18692016601562 21 12.5 C 21 7.813079833984375 17.18692016601562 4 12.5 4 M 12.5 0 C 19.40356063842773 0 25 5.596439361572266 25 12.5 C 25 19.40356063842773 19.40356063842773 25 12.5 25 C 5.596439361572266 25 0 19.40356063842773 0 12.5 C 0 5.596439361572266 5.596439361572266 0 12.5 0 Z" stroke="none" fill="#fff"/>
        </g>
      </g>
      <g id="Trazado_899820-4" data-name="Trazado 899820" transform="translate(228.73 2047)" fill="#efd42f">
        <path d="M 12.5 23 C 6.710279941558838 23 2 18.28972053527832 2 12.5 C 2 6.710279941558838 6.710279941558838 2 12.5 2 C 18.28972053527832 2 23 6.710279941558838 23 12.5 C 23 18.28972053527832 18.28972053527832 23 12.5 23 Z" stroke="none"/>
        <path d="M 12.5 4 C 7.813079833984375 4 4 7.813079833984375 4 12.5 C 4 17.18692016601562 7.813079833984375 21 12.5 21 C 17.18692016601562 21 21 17.18692016601562 21 12.5 C 21 7.813079833984375 17.18692016601562 4 12.5 4 M 12.5 0 C 19.40356063842773 0 25 5.596439361572266 25 12.5 C 25 19.40356063842773 19.40356063842773 25 12.5 25 C 5.596439361572266 25 0 19.40356063842773 0 12.5 C 0 5.596439361572266 5.596439361572266 0 12.5 0 Z" stroke="none"/>
      </g>
      <g transform="matrix(1, 0, 0, 1, 172, 2033)" filter="url(#Trazado_899820-2)">
        <g id="Trazado_899820-5" data-name="Trazado 899820" transform="translate(56.73 14)" fill="#fff">
          <path d="M 12.5 23 C 6.710279941558838 23 2 18.28972053527832 2 12.5 C 2 6.710279941558838 6.710279941558838 2 12.5 2 C 18.28972053527832 2 23 6.710279941558838 23 12.5 C 23 18.28972053527832 18.28972053527832 23 12.5 23 Z" stroke="none"/>
          <path d="M 12.5 4 C 7.813079833984375 4 4 7.813079833984375 4 12.5 C 4 17.18692016601562 7.813079833984375 21 12.5 21 C 17.18692016601562 21 21 17.18692016601562 21 12.5 C 21 7.813079833984375 17.18692016601562 4 12.5 4 M 12.5 0 C 19.40356063842773 0 25 5.596439361572266 25 12.5 C 25 19.40356063842773 19.40356063842773 25 12.5 25 C 5.596439361572266 25 0 19.40356063842773 0 12.5 C 0 5.596439361572266 5.596439361572266 0 12.5 0 Z" stroke="none"/>
        </g>
      </g>
      <g id="Trazado_899820-6" data-name="Trazado 899820" transform="translate(228.73 2047)" fill="none">
        <path d="M 12.5 23 C 6.710279941558838 23 2 18.28972053527832 2 12.5 C 2 6.710279941558838 6.710279941558838 2 12.5 2 C 18.28972053527832 2 23 6.710279941558838 23 12.5 C 23 18.28972053527832 18.28972053527832 23 12.5 23 Z" stroke="none"/>
        <path d="M 12.5 4 C 7.813079833984375 4 4 7.813079833984375 4 12.5 C 4 17.18692016601562 7.813079833984375 21 12.5 21 C 17.18692016601562 21 21 17.18692016601562 21 12.5 C 21 7.813079833984375 17.18692016601562 4 12.5 4 M 12.5 0 C 19.40356063842773 0 25 5.596439361572266 25 12.5 C 25 19.40356063842773 19.40356063842773 25 12.5 25 C 5.596439361572266 25 0 19.40356063842773 0 12.5 C 0 5.596439361572266 5.596439361572266 0 12.5 0 Z" stroke="none" fill="#fff"/>
      </g>
    </g>
    <g id="Grupo_1099413" data-name="Grupo 1099413" transform="translate(189.486 2039)">
      <path id="Trazado_873225" data-name="Trazado 873225" d="M134.165,221.841a1.721,1.721,0,0,1,1.434,1.7v0a1.714,1.714,0,0,1,1.415-1.693,4.675,4.675,0,0,0,4.08-3.693l-.265-.1a.83.83,0,0,1-.533-.773l-.009-3.674a8.03,8.03,0,0,1-4.573,1.424,8.484,8.484,0,0,1-4.612-1.3v3.547a.831.831,0,0,1-.531.775l-.355.137A4.376,4.376,0,0,0,134.165,221.841Zm0,0" transform="translate(-113.471 -186.127)" fill="#ffbeab"/>
      <path id="Trazado_873226" data-name="Trazado 873226" d="M135.085,215.825a8.373,8.373,0,0,1-3.981-1.282v3.547a.831.831,0,0,1-.531.775l-.355.137a4.377,4.377,0,0,0,3.946,3.662,1.721,1.721,0,0,1,.92.47Zm0,0" transform="translate(-113.471 -186.951)" fill="#f7af9f"/>
      <path id="Trazado_873227" data-name="Trazado 873227" d="M236.392,117.332a1.561,1.561,0,0,1-.744.188,2.99,2.99,0,0,1-.622-.066v5.989c0,.067,0,.133-.006.2a3.267,3.267,0,0,0,3.886-3.179A3.208,3.208,0,0,0,236.392,117.332Zm0,0" transform="translate(-204.794 -102.242)" fill="#ffbeab"/>
      <path id="Trazado_873228" data-name="Trazado 873228" d="M237.6,117.884a3.3,3.3,0,0,0-1.206-.552,1.561,1.561,0,0,1-.744.188,2.99,2.99,0,0,1-.622-.066v5.989c0,.067,0,.133-.006.2a3.434,3.434,0,0,0,2.578-.6Zm0,0" transform="translate(-204.794 -102.242)" fill="#f7af9f"/>
      <path id="Trazado_873229" data-name="Trazado 873229" d="M82.779,117.983h-1.04a2.5,2.5,0,0,1-.556-.065,3.22,3.22,0,0,0,1.6,6.235c0-.067-.005-.134-.005-.2Zm0,0" transform="translate(-68.724 -102.753)" fill="#ffbeab"/>
      <path id="Trazado_873230" data-name="Trazado 873230" d="M82.779,123.566a3.213,3.213,0,0,1-1.339-2.616,3.136,3.136,0,0,1,1.339-2.517v-.45h-1.04a2.5,2.5,0,0,1-.556-.065,3.22,3.22,0,0,0,1.6,6.235c0-.067-.005-.134-.005-.2Zm0,0" transform="translate(-68.724 -102.753)" fill="#f7af9f"/>
      <path id="Trazado_873231" data-name="Trazado 873231" d="M122.415,90.871h-.4A5.694,5.694,0,0,1,117.1,93.7h-8.73v6.691a8.192,8.192,0,0,0,16.382,0V93.637A2.956,2.956,0,0,1,122.415,90.871Zm0,0" transform="translate(-94.43 -79.184)" fill="#ffcdbf"/>
      <path id="Trazado_873232" data-name="Trazado 873232" d="M112.185,119.562v-6.691h-3.818v6.691a8.279,8.279,0,0,0,10.151,7.859A8.024,8.024,0,0,1,112.185,119.562Zm0,0" transform="translate(-94.43 -98.355)" fill="#ffbeab"/>
      <path id="Trazado_873233" data-name="Trazado 873233" d="M101.118,11.944a1.507,1.507,0,0,1-1.628-1.185c-.25-1.279-.883-2.548-3.356-2.548H87.554a5.7,5.7,0,0,0-5.7,5.7v6.258a2.4,2.4,0,0,0,2.4,2.4h9.739a5.7,5.7,0,0,0,5.03-3.017.152.152,0,0,1,.285.073,2.953,2.953,0,0,0,2.944,2.944,1.548,1.548,0,0,0,1.543-1.543V14.5A2.557,2.557,0,0,0,101.118,11.944Zm0,0" transform="translate(-71.325 -7.155)" fill="#576574"/>
      <path id="Trazado_873234" data-name="Trazado 873234" d="M85.743,20.171V13.913a5.7,5.7,0,0,1,5.7-5.7H87.554a5.7,5.7,0,0,0-5.7,5.7v6.258a2.4,2.4,0,0,0,2.4,2.4h3.891A2.4,2.4,0,0,1,85.743,20.171Zm0,0" transform="translate(-71.325 -7.155)" fill="#3e4b5a"/>
      <path id="Trazado_873235" data-name="Trazado 873235" d="M45.77,261.818l-8.122-3.146c-2.5,5.91-8.712,5.471-8.712,5.471a8.743,8.743,0,0,1-8.621-5.431L12.3,261.818a7.7,7.7,0,0,0-4.493,6.969v20.094a1.5,1.5,0,0,0,1.5,1.5H43.095l6.529-16.759a.455.455,0,0,0,.228-.394v-6.977A7.911,7.911,0,0,0,45.77,261.818Zm0,0" transform="translate(-6.804 -225.404)" fill="#ff6b6b"/>
      <path id="Trazado_873236" data-name="Trazado 873236" d="M11.667,305.339V283.187a7.381,7.381,0,0,1,2.484-5.628l-1.849.717a7.7,7.7,0,0,0-4.493,6.969v20.094a1.5,1.5,0,0,0,1.5,1.5h3.858A1.5,1.5,0,0,1,11.667,305.339Zm0,0" transform="translate(-6.804 -241.862)" fill="#ee5253"/>
      <path id="Trazado_873237" data-name="Trazado 873237" d="M61.977,379.21H90.3v-3.759h0a7.272,7.272,0,0,1-3.084-3.617H61.977Zm0,0" transform="translate(-54.006 -324.015)" fill="#feca57"/>
      <path id="Trazado_873238" data-name="Trazado 873238" d="M61.977,371.84H66.4v7.374H61.977Zm0,0" transform="translate(-54.006 -324.018)" fill="#f4b537"/>
      <path id="Trazado_873239" data-name="Trazado 873239" d="M111.436,251.692a4.053,4.053,0,0,1-3.692-3.54L104.02,249.6a8.741,8.741,0,0,0,8.753,5.766v-2.089A1.6,1.6,0,0,0,111.436,251.692Zm0,0" transform="translate(-90.642 -216.238)" fill="#ee5253"/>
      <path id="Trazado_873240" data-name="Trazado 873240" d="M107.2,251.106a1.457,1.457,0,0,1,.747-2.078,3.407,3.407,0,0,1-.207-.88l-3.724,1.444a8.742,8.742,0,0,0,8.753,5.766v-.217A8.335,8.335,0,0,1,107.2,251.106Zm0,0" transform="translate(-90.642 -216.234)" fill="#d83941"/>
      <path id="Trazado_873241" data-name="Trazado 873241" d="M177.309,247.921a.793.793,0,0,1-.081-.038,4.35,4.35,0,0,1-3.827,3.574,1.6,1.6,0,0,0-1.319,1.578v2.092a9.078,9.078,0,0,0,8.847-5.8Zm0,0" transform="translate(-149.951 -216.003)" fill="#ee5253"/>
      <path id="Trazado_873242" data-name="Trazado 873242" d="M174.558,253.035a1.6,1.6,0,0,1,1.319-1.578,4.4,4.4,0,0,0,3.58-2.7l-2.148-.832a.793.793,0,0,1-.081-.038,4.35,4.35,0,0,1-3.827,3.574,1.6,1.6,0,0,0-1.319,1.578v2.092a9.25,9.25,0,0,0,2.476-.253Zm0,0" transform="translate(-149.951 -216.003)" fill="#d83941"/>
      <path id="Trazado_873243" data-name="Trazado 873243" d="M97.866,322.168H95.112a1.484,1.484,0,0,0-1.48,1.479v.514a1.484,1.484,0,0,0,1.48,1.479h2.754a1.484,1.484,0,0,0,1.479-1.479v-.514A1.484,1.484,0,0,0,97.866,322.168Zm0,0" transform="translate(-81.591 -280.734)" fill="#e4eaf8"/>
      <path id="Trazado_873244" data-name="Trazado 873244" d="M96.973,324.161v-.514a1.484,1.484,0,0,1,1.186-1.449,1.486,1.486,0,0,0-.293-.03H95.112a1.484,1.484,0,0,0-1.48,1.479v.514a1.484,1.484,0,0,0,1.48,1.479h2.754a1.48,1.48,0,0,0,.293-.03A1.485,1.485,0,0,1,96.973,324.161Zm0,0" transform="translate(-81.591 -280.734)" fill="#c7d2e5"/>
      <path id="Trazado_873245" data-name="Trazado 873245" d="M285.624,400.939a7.118,7.118,0,0,1-3.448-.986V413.49h6.136a1.109,1.109,0,0,0,1.108-1.109V399.963A7.16,7.16,0,0,1,285.624,400.939Zm0,0" transform="translate(-245.885 -348.516)" fill="#e4eaf8"/>
      <path id="Trazado_873246" data-name="Trazado 873246" d="M285.8,400.94h-.174a7.118,7.118,0,0,1-3.448-.986V413.49H285.8Zm0,0" transform="translate(-245.885 -348.516)" fill="#c7d2e5"/>
      <path id="Trazado_873247" data-name="Trazado 873247" d="M261.451,317.784a7.291,7.291,0,0,1-7.014-7.166,7.373,7.373,0,0,1,3.272-6.324.509.509,0,0,1,.782.441v6.33a.465.465,0,0,0,.228.4l2.679,1.579a.447.447,0,0,0,.455,0l2.68-1.579a.466.466,0,0,0,.228-.4v-6.33a.51.51,0,0,1,.794-.433,7.37,7.37,0,0,1,3.262,6.146A7.262,7.262,0,0,1,261.451,317.784Zm0,0" transform="translate(-221.712 -265.086)" fill="#c7d2e5"/>
      <path id="Trazado_873248" data-name="Trazado 873248" d="M258.059,310.618a7.458,7.458,0,0,1,.432-2.682v-3.2a.509.509,0,0,0-.782-.441,7.373,7.373,0,0,0-3.272,6.324,7.291,7.291,0,0,0,7.014,7.166,7.077,7.077,0,0,0,1.988-.236A7.342,7.342,0,0,1,258.059,310.618Zm0,0" transform="translate(-221.712 -265.087)" fill="#bac7db"/>
      <path id="Trazado_873249" data-name="Trazado 873249" d="M2.462,65.848H42.386a2.076,2.076,0,0,0,2.073-2.073V60.365a.965.965,0,0,0-1.93,0v3.409a.144.144,0,0,1-.144.144H40.837V56.133a.965.965,0,0,0-1.929,0v7.785H37.215V52.851a8.182,8.182,0,0,0,5.315.007v3.006a.965.965,0,1,0,1.929,0V51.887a8.155,8.155,0,0,0-.131-13.572,1.478,1.478,0,0,0-1.515-.064c-.012.006-.022.014-.034.021a9.02,9.02,0,0,0-3.487-2.842l-.019-.008-7.987-3.093-3.537-1.37-.007-2.708a9.039,9.039,0,0,0,3.419-5.944,4.1,4.1,0,0,0,2.024-7.527,2.489,2.489,0,0,0,.208-1V7.252A3.521,3.521,0,0,0,29.68,3.736a.547.547,0,0,1-.607-.408C28.635,1.088,27.227,0,24.77,0h-.432a.965.965,0,0,0,0,1.929h.432c1.906,0,2.227.836,2.409,1.768a2.477,2.477,0,0,0,2.649,1.962,1.594,1.594,0,0,1,1.637,1.593v6.53c0,1.146-2.558.514-2.558-1.4a1.117,1.117,0,0,0-2.1-.528,4.767,4.767,0,0,1-4.179,2.507H12.888a1.44,1.44,0,0,1-1.436-1.436V6.667a4.743,4.743,0,0,1,4.737-4.737h3.648a.965.965,0,0,0,0-1.929H16.189A6.674,6.674,0,0,0,9.523,6.667v6.258a3.354,3.354,0,0,0,.958,2.348A3.976,3.976,0,0,0,9.139,18.2a4.118,4.118,0,0,0,3.873,4.1,8.951,8.951,0,0,0,2.472,5.1,8.836,8.836,0,0,0,1.144.987v2.562L5.109,35.422l-.018.008A8.607,8.607,0,0,0,0,43.291V63.386A2.464,2.464,0,0,0,2.462,65.848ZM8.9,48.695H21.127v5.445H8.9Zm0,7.374H21.127v7.85H8.9Zm14.161,0h12.23v7.85H23.056Zm12.23-1.929H23.056V48.7h9.479a8.256,8.256,0,0,0,2.751,3.183Zm8.686-13.681a6.226,6.226,0,0,1-4.25,10.909,6.286,6.286,0,0,1-6.071-6.429,6.183,6.183,0,0,1,2.123-4.481v5.291a1.423,1.423,0,0,0,.709,1.229l2.68,1.547a1.422,1.422,0,0,0,1.419,0l2.68-1.547a1.436,1.436,0,0,0,.709-1.229Zm-1.929.463v4.532l-2.17,1.253L37.7,45.454V39.546a1.474,1.474,0,0,0-2.272-1.24,8.125,8.125,0,0,0-3.548,8.46H23.057V39.979a9.81,9.81,0,0,0,8.4-5.517l7.109,2.753A7.036,7.036,0,0,1,42.043,40.922Zm-25.654-7.8a5.2,5.2,0,0,0,4.2,3.2.638.638,0,0,1,.534.63v1.119A7.662,7.662,0,0,1,14.62,33.8Zm11.474-.047,1.785.691a7.914,7.914,0,0,1-6.591,4.288v-1.11a.63.63,0,0,1,.517-.627A5.331,5.331,0,0,0,27.862,33.072Zm3.381-12.716V16.264a3.014,3.014,0,0,0,.428-.1,2.171,2.171,0,0,1-.428,4.193ZM11.068,18.2a2.2,2.2,0,0,1,1.381-1.943,3.513,3.513,0,0,0,.484.03v4.066A2.179,2.179,0,0,1,11.068,18.2Zm3.794,2.912V16.29h7.765a6.656,6.656,0,0,0,4.817-2.058,3.961,3.961,0,0,0,1.87,1.727c0,5.982,0,5.018-.005,5.336a7.227,7.227,0,0,1-14.447-.18ZM25.817,29.4l0,1.656a1.8,1.8,0,0,0,.349,1.055,3.422,3.422,0,0,1-2.922,2.3,2.542,2.542,0,0,0-1.161.523,2.569,2.569,0,0,0-1.171-.523,3.2,3.2,0,0,1-2.8-2.19,1.8,1.8,0,0,0,.442-1.174V29.462A9.482,9.482,0,0,0,25.817,29.4ZM1.929,43.291a6.685,6.685,0,0,1,3.89-6.075l7-2.712A9.5,9.5,0,0,0,21.127,40v6.77H8.9V45.683a.965.965,0,0,0-1.929,0V63.919h-4.5a.534.534,0,0,1-.533-.533Zm0,0"/>
      <path id="Trazado_873250" data-name="Trazado 873250" d="M88.272,319.359h2.754a2.446,2.446,0,0,0,2.444-2.444V316.4a2.446,2.446,0,0,0-2.444-2.444H88.272a2.446,2.446,0,0,0-2.444,2.444v.514A2.446,2.446,0,0,0,88.272,319.359Zm-.514-2.958a.521.521,0,0,1,.514-.514h2.754a.521.521,0,0,1,.514.514v.514a.521.521,0,0,1-.514.514H88.272a.521.521,0,0,1-.514-.514Zm0,0" transform="translate(-74.79 -273.579)"/>
      <path id="Trazado_873251" data-name="Trazado 873251" d="M199.835,327.457h-2.058a.965.965,0,1,0,0,1.929h2.058a.965.965,0,1,0,0-1.929Zm0,0" transform="translate(-171.501 -285.343)"/>
    </g>
  </g>
</svg>
