<svg xmlns="http://www.w3.org/2000/svg" width="190" height="106.027" viewBox="0 0 190 106.027">
  <g id="Grupo_1176800" data-name="Grupo 1176800" transform="translate(-1230.051 -379.973)">
    <rect id="Rect치ngulo_404337" data-name="Rect치ngulo 404337" width="190" height="52" rx="5" transform="translate(1230.051 413)" fill="#aab0fa"/>
    <rect id="Rect치ngulo_404338" data-name="Rect치ngulo 404338" width="114" height="93" rx="5" transform="translate(1268.051 393)" fill="#161d79"/>
    <g id="Layer_x0020_1" transform="translate(1275.696 379.973)">
      <path id="Trazado_1033130" data-name="Trazado 1033130" d="M26.008,35.491c-9.792,0-17.372-9.9-20.417-19.3A8.606,8.606,0,0,1,.443,8.457,9.3,9.3,0,0,1,5.05.54a1.238,1.238,0,0,1,.6-.157H46.361a1.24,1.24,0,0,1,.6.157,9.3,9.3,0,0,1,4.608,7.917,8.607,8.607,0,0,1-5.148,7.729c-3.046,9.409-10.626,19.3-20.417,19.3ZM5.995,2.862A6.879,6.879,0,0,0,2.922,8.457a6.124,6.124,0,0,0,4.057,5.606,1.235,1.235,0,0,1,.8.817c2.658,8.733,9.5,18.132,18.229,18.132s15.571-9.4,18.229-18.132a1.242,1.242,0,0,1,.8-.817,6.123,6.123,0,0,0,4.057-5.606,6.877,6.877,0,0,0-3.073-5.595H5.995Z" transform="translate(23.475 23.388)" fill-rule="evenodd"/>
      <path id="Trazado_1033131" data-name="Trazado 1033131" d="M42.47,26.25H1.747A1.241,1.241,0,0,1,.507,24.975l.035-1.211a1.057,1.057,0,0,1,.009-.111L1.877,12.541C2.911,3.877,12.775,0,22.091,0c9.024,0,19.2,3.925,20.232,12.541l1.326,11.112c0,.037.008.074.008.111l.028,1A1.243,1.243,0,0,1,42.47,26.25ZM3.034,23.771H41.168L39.862,12.834C39.014,5.719,30.055,2.478,22.091,2.478S5.187,5.719,4.337,12.834l-1.3,10.937Z" transform="translate(27.382 0.001)" fill-rule="evenodd"/>
      <path id="Trazado_1033132" data-name="Trazado 1033132" d="M35.173,10.751a12.068,12.068,0,0,1-2.568-.415A42.474,42.474,0,0,0,22.05,9.184,42.543,42.543,0,0,0,11.5,10.336a12.018,12.018,0,0,1-2.568.415c-2.37,0-3.457-1.572-7.06-6.779L.729,2.329A1.239,1.239,0,0,1,1.747.383H42.352A1.239,1.239,0,0,1,43.37,2.33L42.235,3.968c-3.6,5.21-4.692,6.783-7.063,6.783ZM22.049,6.705A44.7,44.7,0,0,1,33.156,7.92a10.6,10.6,0,0,0,2.017.353c1.01,0,1.791-1.043,4.814-5.411H4.113c3.023,4.368,3.8,5.411,4.813,5.411a10.612,10.612,0,0,0,2.017-.353A44.73,44.73,0,0,1,22.049,6.705Z" transform="translate(27.382 23.389)" fill-rule="evenodd"/>
      <path id="Trazado_1033133" data-name="Trazado 1033133" d="M1.714,26.231A1.24,1.24,0,0,1,.474,24.991V3.57a1.239,1.239,0,0,1,.814-1.164A22.881,22.881,0,0,1,9.149,1H10.48A1.24,1.24,0,0,1,11.72,2.239V24.664A1.24,1.24,0,0,1,10.526,25.9a1.262,1.262,0,0,1-1.282-1.148,3.15,3.15,0,0,0-6.292.235,1.238,1.238,0,0,1-1.238,1.241ZM2.953,4.456V20.328a5.6,5.6,0,0,1,6.288,0V3.48H9.15a20.313,20.313,0,0,0-6.2.976Z" transform="translate(25.394 60.988)" fill-rule="evenodd"/>
      <path id="Trazado_1033134" data-name="Trazado 1033134" d="M2.29,26.229A1.24,1.24,0,0,1,1.051,24.99V2.239A1.24,1.24,0,0,1,2.29,1H3.635a22.9,22.9,0,0,1,7.848,1.4A1.241,1.241,0,0,1,12.3,3.565v21.1A1.24,1.24,0,0,1,11.1,25.9a1.262,1.262,0,0,1-1.282-1.148,3.15,3.15,0,0,0-6.291.235,1.242,1.242,0,0,1-1.241,1.24ZM3.53,3.478V20.327a5.6,5.6,0,0,1,6.288,0V4.45a20.307,20.307,0,0,0-6.184-.972h-.1Z" transform="translate(60.529 60.99)" fill-rule="evenodd"/>
      <path id="Trazado_1033135" data-name="Trazado 1033135" d="M1.914,12.849A1.24,1.24,0,0,1,.675,11.61V2.085a1.239,1.239,0,0,1,2.479,0V11.61A1.239,1.239,0,0,1,1.914,12.849Z" transform="translate(37.631 51.619)" fill-rule="evenodd"/>
      <path id="Trazado_1033136" data-name="Trazado 1033136" d="M2.235,12.849A1.24,1.24,0,0,1,1,11.61V2.085a1.239,1.239,0,0,1,2.479,0V11.61A1.239,1.239,0,0,1,2.235,12.849Z" transform="translate(57.183 51.619)" fill-rule="evenodd"/>
      <path id="Trazado_1033137" data-name="Trazado 1033137" d="M54.853,22.478H1.643A1.24,1.24,0,0,1,.4,21.238V2.606A1.24,1.24,0,0,1,1.643,1.367H6A1.24,1.24,0,0,1,7.242,2.606a3.15,3.15,0,0,0,6.3,0,1.24,1.24,0,0,1,1.239-1.239H41.714a1.24,1.24,0,0,1,1.24,1.239,3.15,3.15,0,1,0,6.3,0,1.24,1.24,0,0,1,1.239-1.239h4.359a1.24,1.24,0,0,1,1.24,1.239V21.238a1.238,1.238,0,0,1-1.239,1.239ZM2.883,20h50.73V3.844H51.595a5.63,5.63,0,0,1-10.983,0H15.884a5.629,5.629,0,0,1-10.982,0H2.883V20Z" transform="translate(21.105 83.374)" fill-rule="evenodd"/>
      <path id="Trazado_1033138" data-name="Trazado 1033138" d="M6.68,12.555a5.629,5.629,0,1,1,5.629-5.63A5.637,5.637,0,0,1,6.68,12.555Zm0-8.779A3.15,3.15,0,1,0,9.829,6.925,3.153,3.153,0,0,0,6.68,3.775Z" transform="translate(60.529 79.054)" fill-rule="evenodd"/>
      <path id="Trazado_1033139" data-name="Trazado 1033139" d="M6.1,12.555a5.629,5.629,0,1,1,5.629-5.63A5.636,5.636,0,0,1,6.1,12.555Zm0-8.779a3.15,3.15,0,1,0,3.15,3.149A3.154,3.154,0,0,0,6.1,3.775Z" transform="translate(25.394 79.054)" fill-rule="evenodd"/>
      <path id="Trazado_1033140" data-name="Trazado 1033140" d="M88.555,3.995H71.626a1.24,1.24,0,0,1,0-2.479H88.555a1.24,1.24,0,0,1,0,2.479Zm-70.138,0H1.368a1.24,1.24,0,0,1,0-2.479H18.417a1.24,1.24,0,0,1,0,2.479Z" transform="translate(4.332 92.462)" fill-rule="evenodd"/>
      <path id="Trazado_1033141" data-name="Trazado 1033141" d="M23.334,9.13H1.9A1.24,1.24,0,0,1,.663,7.89V1.378A1.24,1.24,0,0,1,1.9.139H23.334a1.24,1.24,0,0,1,1.239,1.239V7.89a1.239,1.239,0,0,1-1.239,1.24ZM3.141,6.652H22.093V2.618H3.141Z" transform="translate(36.865 8.491)" fill-rule="evenodd"/>
      <path id="Trazado_1033142" data-name="Trazado 1033142" d="M13.47,18.321a1.24,1.24,0,0,1-.868-.355A24.764,24.764,0,0,0,2.067,11.6a1.239,1.239,0,0,1-.733-1.812L6.12,1.5a1.239,1.239,0,0,1,1.693-.453L19,7.5A1.239,1.239,0,0,1,19.454,9.2l-4.909,8.5a1.242,1.242,0,0,1-.907.609,1.2,1.2,0,0,1-.167.012ZM4.249,9.7a27.123,27.123,0,0,1,8.929,5.41l3.51-6.078L7.647,3.812,4.249,9.7Z" transform="translate(67.641 53.646)" fill-rule="evenodd"/>
      <path id="Trazado_1033143" data-name="Trazado 1033143" d="M2.573,16.407A1.24,1.24,0,0,1,1.5,14.548L9.128,1.337a1.239,1.239,0,0,1,2.146,1.239L3.647,15.786a1.24,1.24,0,0,1-1.074.621Z" transform="translate(77.853 43.827)" fill-rule="evenodd"/>
      <path id="Trazado_1033144" data-name="Trazado 1033144" d="M3.54,15.543a1.239,1.239,0,0,1-1.227-1.065l-.857-6a1.247,1.247,0,0,1,.154-.8L5.391,1.135A1.241,1.241,0,0,1,7.084.682l6.549,3.782a1.24,1.24,0,0,1,.453,1.694L10.3,12.707a1.241,1.241,0,0,1-.624.536L3.989,15.459a1.252,1.252,0,0,1-.449.083Zm.43-6.989.576,4.028,3.83-1.493,2.944-5.1-4.4-2.541Z" transform="translate(84.456 31.503)" fill-rule="evenodd"/>
      <path id="Trazado_1033145" data-name="Trazado 1033145" d="M10.927,22.242A10.862,10.862,0,0,1,2.177,4.932a1.218,1.218,0,0,1,1.066-.5,1.24,1.24,0,0,1,1,.618l3.9,6.749,4.519-2.609-3.9-6.749A1.24,1.24,0,0,1,9.7.587a10.861,10.861,0,1,1,1.224,21.655ZM3.181,8.155a8.382,8.382,0,1,0,8.814-5.087l3.436,5.952a1.239,1.239,0,0,1-.453,1.693L8.312,14.562a1.24,1.24,0,0,1-1.694-.453L3.181,8.155Z" transform="translate(-0.057 31.742)" fill-rule="evenodd"/>
      <path id="Trazado_1033146" data-name="Trazado 1033146" d="M9.912,17.8a1.24,1.24,0,0,1-1.075-.621L.456,2.668A1.239,1.239,0,1,1,2.6,1.429l8.381,14.517A1.239,1.239,0,0,1,9.912,17.8Z" transform="translate(14.123 49.374)" fill-rule="evenodd"/>
      <path id="Trazado_1033147" data-name="Trazado 1033147" d="M1.785,18.159A1.24,1.24,0,0,1,.545,16.92V2.677a1.239,1.239,0,1,1,2.479,0V16.92A1.24,1.24,0,0,1,1.785,18.159Z" transform="translate(29.713 87.693)" fill-rule="evenodd"/>
      <path id="Trazado_1033148" data-name="Trazado 1033148" d="M2.361,18.159A1.24,1.24,0,0,1,1.121,16.92V2.677a1.24,1.24,0,0,1,2.479,0V16.92A1.24,1.24,0,0,1,2.361,18.159Z" transform="translate(64.848 87.693)" fill-rule="evenodd"/>
      <path id="Trazado_1033149" data-name="Trazado 1033149" d="M23.568,30.149a14.233,14.233,0,0,0,9.018-3.527,1.246,1.246,0,0,1,.269-.224c4.179-3.541,7.33-9.084,8.942-14.381a1.242,1.242,0,0,1,.8-.817A6.123,6.123,0,0,0,46.653,5.6,6.921,6.921,0,0,0,44.173.43l-.469.677c-3.6,5.21-4.692,6.783-7.063,6.783a12.068,12.068,0,0,1-2.568-.415A42.474,42.474,0,0,0,23.519,6.323,42.543,42.543,0,0,0,12.964,7.475,12.017,12.017,0,0,1,10.4,7.89c-2.37,0-3.457-1.572-7.06-6.779L2.9.482A6.924,6.924,0,0,0,.483,5.6,6.124,6.124,0,0,0,4.54,11.2a1.235,1.235,0,0,1,.8.817c1.612,5.3,4.76,10.835,8.936,14.376a1.249,1.249,0,0,1,.283.235,14.229,14.229,0,0,0,9.01,3.52Z" transform="translate(25.913 26.25)" fill="#fec9a3" fill-rule="evenodd"/>
      <path id="Trazado_1033150" data-name="Trazado 1033150" d="M18.5,4.267A44.7,44.7,0,0,1,29.608,5.482a10.6,10.6,0,0,0,2.017.353c1.01,0,1.791-1.043,4.814-5.411H.565c3.023,4.368,3.8,5.411,4.813,5.411A10.612,10.612,0,0,0,7.4,5.481,44.73,44.73,0,0,1,18.5,4.267Z" transform="translate(30.93 25.828)" fill="#49648e" fill-rule="evenodd"/>
      <path id="Trazado_1033151" data-name="Trazado 1033151" d="M.548,21.333H38.682L37.377,10.4C36.528,3.28,27.569.039,19.606.039S2.7,3.281,1.852,10.4L.548,21.333ZM30.33,15.182H8.9a1.24,1.24,0,0,1-1.239-1.239V7.43A1.24,1.24,0,0,1,8.9,6.191H30.33A1.24,1.24,0,0,1,31.57,7.43v6.512a1.239,1.239,0,0,1-1.239,1.24Z" transform="translate(29.868 2.439)" fill="#3c5174" fill-rule="evenodd"/>
      <path id="Trazado_1033152" data-name="Trazado 1033152" d="M.7,4.212H19.655V.179H.7Z" transform="translate(39.303 10.93)" fill="#d6d6d4" fill-rule="evenodd"/>
      <path id="Trazado_1033153" data-name="Trazado 1033153" d="M16.574,11.042a8.322,8.322,0,0,0-.837-6.36A8.416,8.416,0,0,0,9.555.561l3.436,5.952a1.239,1.239,0,0,1-.453,1.693L5.872,12.054A1.24,1.24,0,0,1,4.179,11.6L.741,5.648A8.381,8.381,0,0,0,12.422,16.268a1.249,1.249,0,0,1,.487-.281,8.326,8.326,0,0,0,3.665-4.945Z" transform="translate(2.383 34.25)" fill="#e6e6e6" fill-rule="evenodd"/>
      <path id="Trazado_1033154" data-name="Trazado 1033154" d="M.715.905V7.592l8.7,12.152,8.7-12.149V.906a15.819,15.819,0,0,1-8.7,2.734A15.819,15.819,0,0,1,.715.905Z" transform="translate(40.07 55.24)" fill="#fec9a3" fill-rule="evenodd"/>
      <path id="Trazado_1033155" data-name="Trazado 1033155" d="M1.484,5.668,2.06,9.7,5.89,8.2,8.834,3.1,4.432.563Z" transform="translate(86.942 34.389)" fill="#e6e6e6" fill-rule="evenodd"/>
      <path id="Trazado_1033156" data-name="Trazado 1033156" d="M33.817,5.66a5.648,5.648,0,0,1-4.253-4.253H4.837A5.647,5.647,0,0,1,.585,5.659v11.9H33.817V5.66Z" transform="translate(32.152 85.812)" fill="#808da4" fill-rule="evenodd"/>
      <path id="Trazado_1033157" data-name="Trazado 1033157" d="M6.714,17.56V5.66A5.647,5.647,0,0,1,2.463,1.407H.444V17.56h6.27Z" transform="translate(23.544 85.811)" fill="#808da4" fill-rule="evenodd"/>
      <path id="Trazado_1033158" data-name="Trazado 1033158" d="M1.161,5.659v11.9h6.27V1.407H5.413A5.648,5.648,0,0,1,1.161,5.659Z" transform="translate(67.287 85.811)" fill="#808da4" fill-rule="evenodd"/>
      <path id="Trazado_1033159" data-name="Trazado 1033159" d="M1.3,1.556V8.47H16.635a56.1,56.1,0,0,0-.575-6.915H1.3Z" transform="translate(75.894 94.901)" fill="#fec9a3" fill-rule="evenodd"/>
      <path id="Trazado_1033160" data-name="Trazado 1033160" d="M15.488,8.47V1.556H.732A56.05,56.05,0,0,0,.157,8.47H15.488Z" transform="translate(6.022 94.901)" fill="#fec9a3" fill-rule="evenodd"/>
      <g id="Grupo_1176795" data-name="Grupo 1176795" transform="translate(7.176 64.468)">
        <path id="Trazado_1033161" data-name="Trazado 1033161" d="M.173,28.663H14.507v-8a1.24,1.24,0,0,1,1.239-1.239h3.12V1.07q-.527.24-1.045.508a1.248,1.248,0,0,1-.444.236C9.028,6.36,2.569,16.334.173,28.663Z" transform="translate(-0.173 0.848)" fill="#3c5174" fill-rule="evenodd"/>
        <path id="Trazado_1033162" data-name="Trazado 1033162" d="M.656,21.312H25.121V1.04H23.6L14.032,14.4a1.238,1.238,0,0,1-2.016,0L2.45,1.04H.656V21.312Z" transform="translate(29.283 -1.04)" fill="#3c5174" fill-rule="evenodd"/>
        <path id="Trazado_1033163" data-name="Trazado 1033163" d="M1.232,1.071V19.41h3.13A1.24,1.24,0,0,1,5.6,20.65v8H19.937C18.173,19.574,14.209,11.776,8.91,6.478a1.243,1.243,0,0,1-.263-.2A26.23,26.23,0,0,0,1.232,1.071Z" transform="translate(64.419 0.862)" fill="#3c5174" fill-rule="evenodd"/>
      </g>
      <path id="Trazado_1033164" data-name="Trazado 1033164" d="M7.379,17.88V2.012q-.319-.1-.64-.193l-.02-.006A20.255,20.255,0,0,0,1.195,1.04h-.1V17.888a5.6,5.6,0,0,1,6.288,0V17.88Z" transform="translate(62.968 63.428)" fill="#6b809b" fill-rule="evenodd"/>
      <path id="Trazado_1033165" data-name="Trazado 1033165" d="M6.805,4.249a3.139,3.139,0,1,0,.01.236q0-.1-.006-.194c0-.014,0-.028,0-.042Z" transform="translate(27.833 81.494)" fill="#334562" fill-rule="evenodd"/>
      <path id="Trazado_1033166" data-name="Trazado 1033166" d="M1.091,4.526a3.15,3.15,0,0,0,6.3-.041c0-.079,0-.157-.007-.234a3.15,3.15,0,0,0-6.292.234c0,.014,0,.027,0,.041Z" transform="translate(62.968 81.494)" fill="#334562" fill-rule="evenodd"/>
      <path id="Trazado_1033167" data-name="Trazado 1033167" d="M6.8,17.88V1.04H6.712a20.313,20.313,0,0,0-6.2.976V17.888a5.6,5.6,0,0,1,6.288,0V17.88Z" transform="translate(27.833 63.428)" fill="#6b809b" fill-rule="evenodd"/>
      <path id="Trazado_1033168" data-name="Trazado 1033168" d="M90.229,44.862H1.356A1.24,1.24,0,0,1,.117,43.622C.117,20.12,13.959,1,30.974,1h5a1.241,1.241,0,0,1,1.008.519l8.929,12.475,8.93-12.475A1.24,1.24,0,0,1,55.851,1h4.743C77.559,1,91.37,20.008,91.452,43.413a1.182,1.182,0,0,1,.018.209,1.242,1.242,0,0,1-1.241,1.239ZM2.61,42.382H88.96c-.465-21.564-13.011-38.9-28.366-38.9H56.487L46.921,16.844a1.238,1.238,0,0,1-2.016,0L35.34,3.478H30.975c-15.355,0-27.9,17.341-28.366,38.9Z" transform="translate(3.57 60.99)" fill-rule="evenodd"/>
      <path id="Trazado_1033169" data-name="Trazado 1033169" d="M10.15,12.217l3.506-6.071L9.162,3.551l-.026-.015-.029-.017L4.615.926l-3.4,5.887.123.044a27.167,27.167,0,0,1,8.806,5.366l0-.007Z" transform="translate(70.673 56.531)" fill="#ff5959" fill-rule="evenodd"/>
    </g>
  </g>
</svg>
