<svg xmlns="http://www.w3.org/2000/svg" xmlns:xlink="http://www.w3.org/1999/xlink" width="108" height="108" viewBox="0 0 108 108">
  <defs>
    <filter id="Trazado_904820" x="0" y="0" width="108" height="108" filterUnits="userSpaceOnUse">
      <feOffset dy="3" input="SourceAlpha"/>
      <feGaussianBlur stdDeviation="3" result="blur"/>
      <feFlood flood-opacity="0.161"/>
      <feComposite operator="in" in2="blur"/>
      <feComposite in="SourceGraphic"/>
    </filter>
  </defs>
  <g id="Grupo_1173821" data-name="Grupo 1173821" transform="translate(-620 -526)">
    <g id="Grupo_1173585" data-name="Grupo 1173585" transform="translate(629 532)">
      <g id="Grupo_1173428" data-name="Grupo 1173428" transform="translate(0 0)">
        <g id="Grupo_1171958" data-name="Grupo 1171958">
          <g id="Grupo_1167341" data-name="Grupo 1167341">
            <g id="Grupo_1166792" data-name="Grupo 1166792">
              <g transform="matrix(1, 0, 0, 1, -9, -6)" filter="url(#Trazado_904820)">
                <g id="Trazado_904820-2" data-name="Trazado 904820" transform="translate(9 6)" fill="#fdfae8">
                  <path d="M 44.99999618530273 88.49999237060547 C 39.12687301635742 88.49999237060547 33.43022155761719 87.35006713867188 28.06829643249512 85.08216857910156 C 22.88852119445801 82.89130401611328 18.23629570007324 79.75457763671875 14.24084663391113 75.75914001464844 C 10.24540901184082 71.76369476318359 7.108683586120605 67.11146545410156 4.917821407318115 61.93169403076172 C 2.649921178817749 56.56976699829102 1.499996185302734 50.87311553955078 1.499996185302734 44.99999237060547 C 1.499996185302734 39.12686920166016 2.649921178817749 33.43021774291992 4.917821407318115 28.06829261779785 C 7.108683586120605 22.88851737976074 10.24540901184082 18.23630523681641 14.24084663391113 14.24085521697998 C 18.23629570007324 10.24540519714355 22.88852119445801 7.108692169189453 28.06829643249512 4.917829990386963 C 33.43022155761719 2.649929761886597 39.12687301635742 1.500004887580872 44.99999618530273 1.500004887580872 C 50.87311935424805 1.500004887580872 56.56977081298828 2.649929761886597 61.93169784545898 4.917829990386963 C 67.11147308349609 7.108692169189453 71.76369476318359 10.24540519714355 75.75914764404297 14.24085521697998 C 79.75458526611328 18.23630523681641 82.89131164550781 22.88851737976074 85.08216857910156 28.06829261779785 C 87.35007476806641 33.43021774291992 88.5 39.12686920166016 88.5 44.99999237060547 C 88.5 50.87311553955078 87.35007476806641 56.56976699829102 85.08216857910156 61.93169403076172 C 82.89131164550781 67.11146545410156 79.75458526611328 71.76369476318359 75.75914764404297 75.75914001464844 C 71.76369476318359 79.75457763671875 67.11147308349609 82.89130401611328 61.93169784545898 85.08216857910156 C 56.56977081298828 87.35006713867188 50.87311935424805 88.49999237060547 44.99999618530273 88.49999237060547 Z" stroke="none"/>
                  <path d="M 44.99999618530273 2.999992370605469 C 39.32870864868164 2.999992370605469 33.82865142822266 4.11004638671875 28.65262603759766 6.299331665039062 C 23.65165710449219 8.414566040039062 19.15968322753906 11.44333648681641 15.301513671875 15.30150604248047 C 11.44333648681641 19.15967559814453 8.414566040039062 23.65164947509766 6.299339294433594 28.65262222290039 C 4.110054016113281 33.82864761352539 2.999992370605469 39.32870483398438 2.999992370605469 44.99999237060547 C 2.999992370605469 50.67127990722656 4.110054016113281 56.17132186889648 6.299339294433594 61.34736633300781 C 8.414566040039062 66.34833526611328 11.44333648681641 70.84029388427734 15.301513671875 74.69846343994141 C 19.15968322753906 78.55663299560547 23.65165710449219 81.58540344238281 28.65262603759766 83.70063781738281 C 33.82865142822266 85.88992309570312 39.32870864868164 86.99997711181641 44.99999618530273 86.99997711181641 C 50.67128372192383 86.99997711181641 56.17134094238281 85.88992309570312 61.34736633300781 83.70063781738281 C 66.34834289550781 81.58540344238281 70.84030914306641 78.55663299560547 74.69847869873047 74.69846343994141 C 78.55665588378906 70.84029388427734 81.58542633056641 66.34833526611328 83.70065307617188 61.34736633300781 C 85.88993835449219 56.17132186889648 87 50.67127990722656 87 44.99999237060547 C 87 39.32870483398438 85.88993835449219 33.82864761352539 83.70065307617188 28.65262222290039 C 81.58542633056641 23.65164947509766 78.55665588378906 19.15967559814453 74.69847869873047 15.30150604248047 C 70.84030914306641 11.44333648681641 66.34834289550781 8.414566040039062 61.34736633300781 6.299331665039062 C 56.17134094238281 4.11004638671875 50.67128372192383 2.999992370605469 44.99999618530273 2.999992370605469 M 44.99999618530273 -7.62939453125e-06 C 69.85281372070312 -7.62939453125e-06 90 20.14717864990234 90 44.99999237060547 C 90 69.85279083251953 69.85281372070312 89.99997711181641 44.99999618530273 89.99997711181641 C 20.14717864990234 89.99997711181641 -7.62939453125e-06 69.85279083251953 -7.62939453125e-06 44.99999237060547 C -7.62939453125e-06 20.14717864990234 20.14717864990234 -7.62939453125e-06 44.99999618530273 -7.62939453125e-06 Z" stroke="none" fill="#a6931f"/>
                </g>
              </g>
            </g>
          </g>
        </g>
      </g>
    </g>
    <g id="mechanic_18208091" transform="translate(645.787 540.015)">
      <path id="Trazado_1033054" data-name="Trazado 1033054" d="M342.248,324.559a8.493,8.493,0,0,1-1.064,2.565l.493.824.6,1a10.489,10.489,0,0,1-2.036,2.037l-1-.6-.824-.493a8.5,8.5,0,0,1-2.565,1.064l-.233.93-.286,1.133a10.58,10.58,0,0,1-2.881,0l-.29-1.133-.233-.93a8.5,8.5,0,0,1-2.565-1.064l-.821.493-1.005.6a10.488,10.488,0,0,1-2.036-2.037l.6-1,.493-.824a8.58,8.58,0,0,1-1.064-2.565l-.926-.233-1.137-.286a10.567,10.567,0,0,1,0-2.881l1.137-.289.926-.233a8.579,8.579,0,0,1,1.065-2.565l-.493-.821-.6-1.005a10.49,10.49,0,0,1,2.037-2.036l1.005.6.821.493a8.58,8.58,0,0,1,2.565-1.064l.233-.926.29-1.136a10.567,10.567,0,0,1,2.881,0l.286,1.136.233.926a8.58,8.58,0,0,1,2.565,1.064l.825-.493,1-.6a10.487,10.487,0,0,1,2.036,2.036l-.6,1.005-.493.821a8.492,8.492,0,0,1,1.064,2.565l.93.233,1.133.289a10.568,10.568,0,0,1,0,2.881l-1.134.285Z" transform="translate(-285.893 -269.358)" fill="#3f5163" fill-rule="evenodd"/>
      <path id="Trazado_1033055" data-name="Trazado 1033055" d="M375.881,358.808a5.778,5.778,0,1,1-5.778-5.778,5.778,5.778,0,0,1,5.778,5.778Z" transform="translate(-322.111 -305.568)" fill="#d5e3f2" fill-rule="evenodd"/>
      <path id="Trazado_1033056" data-name="Trazado 1033056" d="M269.87,27.359a7.362,7.362,0,0,1-2.26-7.512,7.526,7.526,0,0,1,6.152-5.446l-1.784,6.652,2.381,2.378,3.249-.87,1.784-6.651A7.536,7.536,0,0,1,282,23.7a7.365,7.365,0,0,1-5.716,5.374l-3.482,13a5.669,5.669,0,1,1-6.412-1.718Z" transform="translate(-232.294 -6.178)" fill="#b7cfe8" fill-rule="evenodd"/>
      <path id="Trazado_1033057" data-name="Trazado 1033057" d="M293.677,263.166a2.44,2.44,0,1,1-2.986,1.725A2.44,2.44,0,0,1,293.677,263.166Z" transform="translate(-256.935 -226.043)" fill="#d5e3f2" fill-rule="evenodd"/>
      <path id="Trazado_1033058" data-name="Trazado 1033058" d="M42.147,323.446C41.47,302.9,36.721,307.373,27.1,300.62H22.041a35.885,35.885,0,0,1-5.357,3.074c-6.057,2.9-9.155,3.459-9.693,19.752Z" transform="translate(-6.183 -259.231)" fill="#2c3947" fill-rule="evenodd"/>
      <path id="Trazado_1033059" data-name="Trazado 1033059" d="M42.147,455.7c-.07-2.073-.177-3.889-.332-5.492H7.322c-.151,1.6-.263,3.419-.332,5.492Z" transform="translate(-6.183 -391.482)" fill="#faba7b" fill-rule="evenodd"/>
      <path id="Trazado_1033060" data-name="Trazado 1033060" d="M126.725,256.113h7.41v6.54a3.705,3.705,0,0,1-7.411,0Z" transform="translate(-112.044 -219.881)" fill="#f5ad65" fill-rule="evenodd"/>
      <path id="Trazado_1033061" data-name="Trazado 1033061" d="M53.025,402.835H77.513v10.981H53.025Z" transform="translate(-46.884 -349.601)" fill="#3f5163"/>
      <path id="Trazado_1033062" data-name="Trazado 1033062" d="M58.694,173.788a3.09,3.09,0,1,1-4.211,1.163A3.09,3.09,0,0,1,58.694,173.788Zm18.066,0a3.09,3.09,0,1,1-4.211,1.163A3.09,3.09,0,0,1,76.761,173.788Z" transform="translate(-47.817 -146.741)" fill="#f5ad65" fill-rule="evenodd"/>
      <path id="Trazado_1033063" data-name="Trazado 1033063" d="M134.136,261.359a10.53,10.53,0,0,1-7.41,0v-5.246h7.41Z" transform="translate(-112.044 -219.881)" fill="#e6a059" fill-rule="evenodd"/>
      <path id="Trazado_1033064" data-name="Trazado 1033064" d="M95.046,93.733a9.6,9.6,0,1,1-19.2,0V83.517A5.835,5.835,0,0,1,81.661,77.7h7.568a5.835,5.835,0,0,1,5.817,5.817V93.733Z" transform="translate(-67.058 -62.143)" fill="#faba7b" fill-rule="evenodd"/>
      <path id="Trazado_1033065" data-name="Trazado 1033065" d="M81.661,77.7h7.568a5.835,5.835,0,0,1,5.817,5.817v3.419l-2.039,3.915a.839.839,0,0,1-.858.522,32.084,32.084,0,0,0-13.408,0,.84.84,0,0,1-.861-.522l-2.037-3.915v-3.42A5.835,5.835,0,0,1,81.661,77.7Z" transform="translate(-67.059 -62.143)" fill="#2c3947" fill-rule="evenodd"/>
      <path id="Trazado_1033066" data-name="Trazado 1033066" d="M78.741,161.849a32.085,32.085,0,0,1,13.408,0,.839.839,0,0,0,.858-.522l2.039-3.915h-19.2l2.037,3.915a.84.84,0,0,0,.861.522Z" transform="translate(-67.059 -132.617)" fill="#3f5163" fill-rule="evenodd"/>
      <path id="Trazado_1033067" data-name="Trazado 1033067" d="M126.3,107.493h7.509v2.329H126.3Z" transform="translate(-111.669 -88.483)" fill="#d5e3f2"/>
      <g id="Grupo_1176791" data-name="Grupo 1176791" transform="translate(0.807 8.222)">
        <path id="Trazado_1033068" data-name="Trazado 1033068" d="M74.487,320.881V331.1a1.794,1.794,0,0,1-1.79,1.79H72.5a1.794,1.794,0,0,1-1.79-1.79v-8.393c.716-.355,1.485-.707,2.309-1.1.47-.227.959-.467,1.465-.726Z" transform="translate(-63.329 -285.366)" fill="#ffab02" fill-rule="evenodd"/>
        <path id="Trazado_1033069" data-name="Trazado 1033069" d="M214.087,320.857v10.222a1.794,1.794,0,0,0,1.79,1.79h.2a1.794,1.794,0,0,0,1.79-1.79v-8.393c-1.127-.555-2.381-1.107-3.778-1.83Z" transform="translate(-190.089 -285.345)" fill="#ffab02" fill-rule="evenodd"/>
        <path id="Trazado_1033070" data-name="Trazado 1033070" d="M103.283,310.492c.887-.427,1.836-.9,2.851-1.488a3.648,3.648,0,0,1-.135-.989v-.594c-.956.611-1.862,1.117-2.717,1.56Z" transform="translate(-92.125 -273.466)" fill="#1f2a36" fill-rule="evenodd"/>
        <path id="Trazado_1033071" data-name="Trazado 1033071" d="M74.487,322.4v-1.511c-.506.259-1,.5-1.465.726-.824.394-1.593.746-2.309,1.1v1.56c1.081-.634,2.309-1.176,3.7-1.84C74.435,322.419,74.461,322.409,74.487,322.4Z" transform="translate(-63.329 -285.37)" fill="#ed9e00" fill-rule="evenodd"/>
        <path id="Trazado_1033072" data-name="Trazado 1033072" d="M16.906,338.181v-1.564c-3.876,1.915-6.172,3.893-7.052,13.162h1.468c.818-7.457,2.644-9.874,5.584-11.6Z" transform="translate(-9.522 -299.279)" fill="#1f2a36" fill-rule="evenodd"/>
        <path id="Trazado_1033073" data-name="Trazado 1033073" d="M8.79,450.2H7.322c-.125,1.307-.22,2.759-.289,4.372-.013.365-.03.739-.043,1.12H8.406C8.491,453.606,8.619,451.79,8.79,450.2Z" transform="translate(-6.99 -399.7)" fill="#f5ad65" fill-rule="evenodd"/>
        <path id="Trazado_1033074" data-name="Trazado 1033074" d="M78.636,160.206l-1.455-2.8H75.844l.976,1.876,1.061,2.039a.84.84,0,0,0,.861.522c.23-.049.46-.1.693-.141a.686.686,0,0,0,.079-.016,1,1,0,0,1-.105-.1,1.265,1.265,0,0,1-.191-.267Z" transform="translate(-67.865 -140.839)" fill="#334454" fill-rule="evenodd"/>
        <path id="Trazado_1033075" data-name="Trazado 1033075" d="M77.183,86.937v-3.42A5.835,5.835,0,0,1,83,77.7H81.663a5.835,5.835,0,0,0-5.817,5.817v3.419Z" transform="translate(-67.867 -70.365)" fill="#1f2a36" fill-rule="evenodd"/>
        <path id="Trazado_1033076" data-name="Trazado 1033076" d="M266.39,40.363a5.667,5.667,0,0,0,.548,10.771,5.241,5.241,0,0,0,.614.128,5.667,5.667,0,0,1,.1-10.554l3.485-13a7.358,7.358,0,0,1-2.263-7.509,7.552,7.552,0,0,1,4.7-5.088l.19-.7a7.526,7.526,0,0,0-6.152,5.446,7.362,7.362,0,0,0,2.26,7.512Z" transform="translate(-233.102 -14.403)" fill="#a7bed6" fill-rule="evenodd"/>
        <path id="Trazado_1033077" data-name="Trazado 1033077" d="M368.082,27.414,366.3,34.065l-3.249.871.535.535,3.975-1.064,1.6-5.955a7.294,7.294,0,0,0-1.074-1.038Z" transform="translate(-321.79 -25.906)" fill="#a7bed6" fill-rule="evenodd"/>
        <path id="Trazado_1033078" data-name="Trazado 1033078" d="M333.239,314.229l.233-.926.286-1.136c.26-.033.522-.059.785-.076-.213-.013-.434-.023-.654-.023a10.9,10.9,0,0,0-1.439.1l-.29,1.136-.233.926a8.478,8.478,0,0,0-1.889.687l.634.378a8.579,8.579,0,0,1,2.565-1.064Zm0,16.726a8.5,8.5,0,0,1-2.565-1.064l-.634.381a8.627,8.627,0,0,0,1.889.684l.233.93.29,1.133a10.919,10.919,0,0,0,1.439.1c.22,0,.44-.007.657-.02q-.4-.025-.788-.079l-.286-1.133Zm-5.83-13.711-.6-1.005a10.582,10.582,0,0,1,1.481-1.587l-.756-.45a10.491,10.491,0,0,0-2.036,2.036l.6,1.005.493.821a8.579,8.579,0,0,0-1.064,2.565l-.926.233-1.137.289a10.567,10.567,0,0,0,0,2.881l1.137.286.926.233a8.58,8.58,0,0,0,1.064,2.565l-.493.824-.6,1a10.489,10.489,0,0,0,2.036,2.037l.756-.45a10.592,10.592,0,0,1-1.482-1.587l.6-1,.493-.824a8.5,8.5,0,0,1-1.064-2.565l-.93-.233-1.133-.286a10.581,10.581,0,0,1,0-2.881l1.133-.289.93-.233a8.495,8.495,0,0,1,1.064-2.565Z" transform="translate(-286.704 -277.575)" fill="#334454" fill-rule="evenodd"/>
      </g>
      <path id="Trazado_1033079" data-name="Trazado 1033079" d="M47.992,46.65a6.589,6.589,0,1,0,6.589,6.589A6.589,6.589,0,0,0,47.992,46.65Zm0,11.555a4.966,4.966,0,1,1,4.966-4.966,4.966,4.966,0,0,1-4.966,4.966ZM35.266,42.615a3.25,3.25,0,1,0-2.3-3.981A3.275,3.275,0,0,0,35.266,42.615Zm-.73-3.558A1.627,1.627,0,1,1,35.2,40.83,1.636,1.636,0,0,1,34.536,39.058ZM59.222,51.692a.811.811,0,0,0-.606-.681l-1.6-.4a9.276,9.276,0,0,0-.785-1.89l.845-1.417a.811.811,0,0,0-.05-.9A11.29,11.29,0,0,0,54.833,44.2a.811.811,0,0,0-.9-.05L52.513,45a9.375,9.375,0,0,0-1.89-.784l-.4-1.6a.811.811,0,0,0-.681-.606,11.316,11.316,0,0,0-3.1,0,.811.811,0,0,0-.681.607l-.4,1.6a9.379,9.379,0,0,0-1.89.784l-1.417-.845a.811.811,0,0,0-.9.05A11.29,11.29,0,0,0,38.955,46.4a.811.811,0,0,0-.05.9l.845,1.417a9.362,9.362,0,0,0-.783,1.89l-1.6.4a.811.811,0,0,0-.606.681,11.406,11.406,0,0,0,0,3.1.811.811,0,0,0,.607.68l1.6.4a9.365,9.365,0,0,0,.784,1.89L38.9,59.177a.811.811,0,0,0,.05.9,11.3,11.3,0,0,0,2.194,2.194.811.811,0,0,0,.9.05l1.417-.845a9.274,9.274,0,0,0,1.89.785l.4,1.6a.811.811,0,0,0,.68.606,11.406,11.406,0,0,0,3.1,0,.811.811,0,0,0,.68-.606l.4-1.6a9.276,9.276,0,0,0,1.89-.785l1.417.845a.811.811,0,0,0,.9-.05,11.293,11.293,0,0,0,2.194-2.194.811.811,0,0,0,.05-.9l-.844-1.417a9.275,9.275,0,0,0,.785-1.89l1.6-.4a.811.811,0,0,0,.606-.681,11.414,11.414,0,0,0,0-3.1Zm-1.55,2.341-1.514.381a.811.811,0,0,0-.593.6,7.677,7.677,0,0,1-.963,2.32.811.811,0,0,0-.007.846l.8,1.341a9.658,9.658,0,0,1-1.12,1.12l-1.34-.8a.811.811,0,0,0-.846.007,7.675,7.675,0,0,1-2.32.963.811.811,0,0,0-.6.593l-.381,1.514a9.495,9.495,0,0,1-1.587,0L46.818,61.4a.811.811,0,0,0-.6-.593,7.673,7.673,0,0,1-2.32-.963.811.811,0,0,0-.846-.007l-1.341.8a9.685,9.685,0,0,1-1.12-1.12l.8-1.341a.811.811,0,0,0-.007-.846,7.767,7.767,0,0,1-.964-2.323.811.811,0,0,0-.591-.6l-1.515-.381c-.022-.27-.033-.532-.033-.793s.011-.523.033-.793l1.515-.381a.811.811,0,0,0,.591-.6,7.764,7.764,0,0,1,.964-2.323.811.811,0,0,0,.007-.846l-.8-1.34a9.666,9.666,0,0,1,1.12-1.12l1.341.8a.811.811,0,0,0,.846-.007,7.764,7.764,0,0,1,2.323-.964.811.811,0,0,0,.6-.591L47.2,43.56a9.485,9.485,0,0,1,1.586,0l.381,1.515a.811.811,0,0,0,.6.591,7.764,7.764,0,0,1,2.323.964.812.812,0,0,0,.846.007l1.34-.8a9.677,9.677,0,0,1,1.12,1.12l-.8,1.341a.811.811,0,0,0,.007.846,7.676,7.676,0,0,1,.963,2.32.811.811,0,0,0,.593.6l1.514.381c.022.27.033.533.033.793s-.011.524-.033.794Zm-23.238-8.3a6.48,6.48,0,0,0,6.959-10.01l3.253-12.149a8.111,8.111,0,0,0,5.84-5.843A8.357,8.357,0,0,0,47.6,9.092a.811.811,0,0,0-1.284.429l-1.662,6.2-2.344.628L40.59,14.629l1.662-6.2a.811.811,0,0,0-.9-1.014,8.348,8.348,0,0,0-6.822,6.039,8.213,8.213,0,0,0,2.134,7.981L33.413,33.589a6.478,6.478,0,0,0,1.02,12.148Zm-3.014-7.514a4.877,4.877,0,0,1,2.965-3.282.811.811,0,0,0,.494-.548l3.482-13a.811.811,0,0,0-.246-.816,6.523,6.523,0,0,1-2.014-6.7,6.722,6.722,0,0,1,4.231-4.546L38.9,14.661a.812.812,0,0,0,.21.784l2.381,2.381a.811.811,0,0,0,.784.21l3.249-.87a.811.811,0,0,0,.574-.573l1.429-5.331a6.731,6.731,0,0,1,1.392,6.053A6.535,6.535,0,0,1,43.825,22.1a.811.811,0,0,0-.621.585l-3.482,13a.812.812,0,0,0,.154.721,4.856,4.856,0,1,1-8.457,1.811Zm-3.868,5.947c-.737-.346-1.522-.716-2.356-1.146l-.016-.008c-.724-.374-1.484-.8-2.28-1.286v-.755a10.447,10.447,0,0,0,5.734-7.531,3.9,3.9,0,0,0,.165-7.355V21.375a6.636,6.636,0,0,0-6.628-6.628H14.6a6.638,6.638,0,0,0-6.632,6.628v4.712a3.9,3.9,0,0,0,.165,7.355,10.447,10.447,0,0,0,5.734,7.53v.756a38.139,38.139,0,0,1-3.72,2c-.32.153-.631.3-.934.442-.46.216-.9.425-1.331.636a.806.806,0,0,0-.1.048,10.677,10.677,0,0,0-5.159,4.481C1.034,52.184.247,56.625,0,64.187a.811.811,0,0,0,.811.838H35.963a.811.811,0,0,0,.811-.838c-.25-7.564-1.037-12.006-2.632-14.852-1.572-2.806-3.787-3.847-6.591-5.166ZM28.8,27.924a2.278,2.278,0,0,1,0,3.625ZM7.972,31.544a2.272,2.272,0,0,1,0-3.62Zm17.645,13.5c.429.208.844.4,1.244.591.314.148.617.29.91.431v7.887a.98.98,0,0,1-.979.979h-.2a.98.98,0,0,1-.979-.979ZM9.594,21.375A5.013,5.013,0,0,1,14.6,16.369h7.568a5.011,5.011,0,0,1,5.006,5.006v2.6H9.594ZM26.653,25.6l-1.424,2.733a.41.41,0,0,1-.055.082,33.542,33.542,0,0,0-6.8-.7,33.063,33.063,0,0,0-6.764.7.412.412,0,0,1-.063-.08L10.122,25.6ZM9.594,31.59V28.106l.509.978a1.684,1.684,0,0,0,1.453.97,1.364,1.364,0,0,0,.292-.032,31.547,31.547,0,0,1,13.07,0,1.623,1.623,0,0,0,1.75-.937l.509-.977V31.59a8.8,8.8,0,0,1-5.322,8.075.812.812,0,0,0-.151.062,8.769,8.769,0,0,1-6.647,0,.8.8,0,0,0-.136-.057A8.8,8.8,0,0,1,9.594,31.59Zm11.684,10v1.177a2.892,2.892,0,1,1-5.784,0V41.593a10.433,10.433,0,0,0,5.784,0Zm-8.5,2.633c.375-.2.764-.416,1.167-.65a4.513,4.513,0,0,0,8.883,0q.6.347,1.167.648v8.2H12.777ZM9,46.069c.291-.14.592-.282.9-.429s.621-.292.944-.447l.3-.146v8.907a.98.98,0,0,1-.979.979H9.982A.98.98,0,0,1,9,53.954ZM5.331,63.4H1.649c.056-1.4.133-2.686.232-3.869h3.45Zm0-10.169V57.91H2.039a21.033,21.033,0,0,1,2-7.779A8.186,8.186,0,0,1,7.38,46.907v5.515H6.142a.811.811,0,0,0-.811.811ZM29.818,63.4H6.953V54.044h.429a2.6,2.6,0,0,0,2.6,2.513h.194a2.6,2.6,0,0,0,2.6-2.513H24a2.6,2.6,0,0,0,2.6,2.513h.2a2.6,2.6,0,0,0,2.6-2.513h.426Zm5.3,0H31.44V59.533H34.89C34.989,60.715,35.066,62,35.122,63.4ZM31.44,57.91V53.233a.811.811,0,0,0-.811-.811H29.394V46.906a8.182,8.182,0,0,1,3.333,3.222,21.026,21.026,0,0,1,2.006,7.782ZM22.141,18.2H14.632a.811.811,0,0,0-.811.811V21.34a.811.811,0,0,0,.811.811h7.509a.811.811,0,0,0,.811-.811V19.01a.811.811,0,0,0-.811-.811Zm-.811,2.329H15.443v-.707H21.33Zm4.546,33.113a.811.811,0,0,1,.811-.811H26.7a.811.811,0,1,1,0,1.622h-.013a.811.811,0,0,1-.811-.812Zm-16.609,0a.807.807,0,0,1,.806-.811h.01a.811.811,0,1,1-.816.811Z" transform="translate(0 0)"/>
    </g>
  </g>
</svg>
