<svg xmlns="http://www.w3.org/2000/svg" xmlns:xlink="http://www.w3.org/1999/xlink" width="108" height="108" viewBox="0 0 108 108">
  <defs>
    <filter id="Trazado_904820" x="0" y="0" width="108" height="108" filterUnits="userSpaceOnUse">
      <feOffset dy="3" input="SourceAlpha"/>
      <feGaussianBlur stdDeviation="3" result="blur"/>
      <feFlood flood-opacity="0.161"/>
      <feComposite operator="in" in2="blur"/>
      <feComposite in="SourceGraphic"/>
    </filter>
  </defs>
  <g id="Grupo_1176818" data-name="Grupo 1176818" transform="translate(9 6)">
    <g id="Grupo_1173585" data-name="Grupo 1173585" transform="translate(0)">
      <g id="Grupo_1173428" data-name="Grupo 1173428">
        <g id="Grupo_1171958" data-name="Grupo 1171958">
          <g id="Grupo_1167341" data-name="Grupo 1167341">
            <g id="Grupo_1166792" data-name="Grupo 1166792">
              <g transform="matrix(1, 0, 0, 1, -9, -6)" filter="url(#Trazado_904820)">
                <g id="Trazado_904820-2" data-name="Trazado 904820" transform="translate(9 6)" fill="#e5f0fe">
                  <path d="M 44.99999618530273 88.49999237060547 C 39.12687301635742 88.49999237060547 33.43022155761719 87.35006713867188 28.06829643249512 85.08216857910156 C 22.88852119445801 82.89130401611328 18.23629570007324 79.75457763671875 14.24084663391113 75.75914001464844 C 10.24540901184082 71.76369476318359 7.108683586120605 67.11146545410156 4.917821407318115 61.93169403076172 C 2.649921178817749 56.56976699829102 1.499996185302734 50.87311553955078 1.499996185302734 44.99999237060547 C 1.499996185302734 39.12686920166016 2.649921178817749 33.43021774291992 4.917821407318115 28.06829261779785 C 7.108683586120605 22.88851737976074 10.24540901184082 18.23630523681641 14.24084663391113 14.24085521697998 C 18.23629570007324 10.24540519714355 22.88852119445801 7.108692169189453 28.06829643249512 4.917829990386963 C 33.43022155761719 2.649929761886597 39.12687301635742 1.500004887580872 44.99999618530273 1.500004887580872 C 50.87311935424805 1.500004887580872 56.56977081298828 2.649929761886597 61.93169784545898 4.917829990386963 C 67.11147308349609 7.108692169189453 71.76369476318359 10.24540519714355 75.75914764404297 14.24085521697998 C 79.75458526611328 18.23630523681641 82.89131164550781 22.88851737976074 85.08216857910156 28.06829261779785 C 87.35007476806641 33.43021774291992 88.5 39.12686920166016 88.5 44.99999237060547 C 88.5 50.87311553955078 87.35007476806641 56.56976699829102 85.08216857910156 61.93169403076172 C 82.89131164550781 67.11146545410156 79.75458526611328 71.76369476318359 75.75914764404297 75.75914001464844 C 71.76369476318359 79.75457763671875 67.11147308349609 82.89130401611328 61.93169784545898 85.08216857910156 C 56.56977081298828 87.35006713867188 50.87311935424805 88.49999237060547 44.99999618530273 88.49999237060547 Z" stroke="none"/>
                  <path d="M 44.99999618530273 2.999992370605469 C 39.32870864868164 2.999992370605469 33.82865142822266 4.11004638671875 28.65262603759766 6.299331665039062 C 23.65165710449219 8.414566040039062 19.15968322753906 11.44333648681641 15.301513671875 15.30150604248047 C 11.44333648681641 19.15967559814453 8.414566040039062 23.65164947509766 6.299339294433594 28.65262222290039 C 4.110054016113281 33.82864761352539 2.999992370605469 39.32870483398438 2.999992370605469 44.99999237060547 C 2.999992370605469 50.67127990722656 4.110054016113281 56.17132186889648 6.299339294433594 61.34736633300781 C 8.414566040039062 66.34833526611328 11.44333648681641 70.84029388427734 15.301513671875 74.69846343994141 C 19.15968322753906 78.55663299560547 23.65165710449219 81.58540344238281 28.65262603759766 83.70063781738281 C 33.82865142822266 85.88992309570312 39.32870864868164 86.99997711181641 44.99999618530273 86.99997711181641 C 50.67128372192383 86.99997711181641 56.17134094238281 85.88992309570312 61.34736633300781 83.70063781738281 C 66.34834289550781 81.58540344238281 70.84030914306641 78.55663299560547 74.69847869873047 74.69846343994141 C 78.55665588378906 70.84029388427734 81.58542633056641 66.34833526611328 83.70065307617188 61.34736633300781 C 85.88993835449219 56.17132186889648 87 50.67127990722656 87 44.99999237060547 C 87 39.32870483398438 85.88993835449219 33.82864761352539 83.70065307617188 28.65262222290039 C 81.58542633056641 23.65164947509766 78.55665588378906 19.15967559814453 74.69847869873047 15.30150604248047 C 70.84030914306641 11.44333648681641 66.34834289550781 8.414566040039062 61.34736633300781 6.299331665039062 C 56.17134094238281 4.11004638671875 50.67128372192383 2.999992370605469 44.99999618530273 2.999992370605469 M 44.99999618530273 -7.62939453125e-06 C 69.85281372070312 -7.62939453125e-06 90 20.14717864990234 90 44.99999237060547 C 90 69.85279083251953 69.85281372070312 89.99997711181641 44.99999618530273 89.99997711181641 C 20.14717864990234 89.99997711181641 -7.62939453125e-06 69.85279083251953 -7.62939453125e-06 44.99999237060547 C -7.62939453125e-06 20.14717864990234 20.14717864990234 -7.62939453125e-06 44.99999618530273 -7.62939453125e-06 Z" stroke="none" fill="#5d6b7d"/>
                </g>
              </g>
            </g>
          </g>
        </g>
      </g>
    </g>
    <g id="Filled_outline" data-name="Filled outline" transform="translate(16.726 18.25)">
      <path id="Trazado_1033247" data-name="Trazado 1033247" d="M38.4,57.525V42.73a9.891,9.891,0,0,0,4.921-11.875L37.5,36.63a2.184,2.184,0,0,1-3.079-.009l-3.236-3.236a2.184,2.184,0,0,1-.009-3.079l5.775-5.822a9.878,9.878,0,0,0-4.281-.409A9.906,9.906,0,0,0,29.395,42.73V57.525A9.891,9.891,0,0,0,24.474,69.4L30.3,63.625a2.184,2.184,0,0,1,3.079.009l3.236,3.236a2.184,2.184,0,0,1,.009,3.079L30.845,75.77a9.878,9.878,0,0,0,4.281.409A9.906,9.906,0,0,0,38.4,57.525Z" transform="translate(-23.085 -23.098)" fill="#d6d6d4"/>
      <path id="Trazado_1033248" data-name="Trazado 1033248" d="M38.4,232.635v-11.3l-9.01,9.01v2.292a9.891,9.891,0,0,0-4.921,11.875l5.822-5.775a2.184,2.184,0,0,1,3.08.009l3.236,3.236a2.184,2.184,0,0,1,.009,3.08l-5.775,5.822a9.877,9.877,0,0,0,4.281.409A9.906,9.906,0,0,0,38.4,232.635Z" transform="translate(-23.085 -198.207)" fill="#c7c7c5"/>
      <path id="Trazado_1033249" data-name="Trazado 1033249" d="M104,184h1.8v16.217H104Z" transform="translate(-94.086 -165.079)" fill="#b0b0ae"/>
      <path id="Trazado_1033250" data-name="Trazado 1033250" d="M218.237,243.821V235.9a5.406,5.406,0,0,0-4.641-5.351l-7.972-1.139V224h-9.01v5.406l-8.34,1.787A5.406,5.406,0,0,0,184,236.478v7.343" transform="translate(-165.076 -200.574)" fill="#fec9a3"/>
      <path id="Trazado_1033251" data-name="Trazado 1033251" d="M296,224v3.137a8.1,8.1,0,0,0,9.01,0V224Z" transform="translate(-264.463 -200.574)" fill="#feb784"/>
      <path id="Trazado_1033252" data-name="Trazado 1033252" d="M213.6,273.139,205.623,272l-1.931,5.406h-5.148L196.614,272l-8.34,1.787A5.406,5.406,0,0,0,184,279.073v7.343h34.237V278.49a5.406,5.406,0,0,0-4.641-5.352Z" transform="translate(-165.076 -243.168)" fill="#e0e0de"/>
      <path id="Trazado_1033253" data-name="Trazado 1033253" d="M218.237,278.49v9.727H211.93v9.01H190.307v-8.109H184V279.073a5.406,5.406,0,0,1,4.272-5.285L196.614,272l4.5,12.614,4.5-12.614,7.972,1.139A5.408,5.408,0,0,1,218.237,278.49Z" transform="translate(-165.076 -243.168)" fill="#425b82"/>
      <path id="Trazado_1033254" data-name="Trazado 1033254" d="M267.93,298.838v9.727h-6.307v9.01H240v-4.253c10.315-4.1,18.995-8.456,26.259-18.392A5.394,5.394,0,0,1,267.93,298.838Z" transform="translate(-214.77 -263.516)" fill="#3c5174"/>
      <g id="Grupo_1176806" data-name="Grupo 1176806" transform="translate(24.329 37.841)">
        <path id="Trazado_1033255" data-name="Trazado 1033255" d="M328,384h1.8v12.614H328Z" transform="translate(-317.188 -380.396)" fill="#334562"/>
        <path id="Trazado_1033256" data-name="Trazado 1033256" d="M360,376h8.109v1.8H360Z" transform="translate(-345.585 -373.297)" fill="#334562"/>
        <path id="Trazado_1033257" data-name="Trazado 1033257" d="M296,368h1.8v1.8H296Z" transform="translate(-288.792 -366.198)" fill="#334562"/>
        <path id="Trazado_1033258" data-name="Trazado 1033258" d="M424,352h1.8v14.415H424Z" transform="translate(-402.377 -352)" fill="#334562"/>
        <path id="Trazado_1033259" data-name="Trazado 1033259" d="M232,352h1.8v14.415H232Z" transform="translate(-232 -352)" fill="#334562"/>
      </g>
      <path id="Trazado_1033260" data-name="Trazado 1033260" d="M265.871,265.628l.69,8.283,4.917-2.81-2.214-7.1Z" transform="translate(-237.727 -236.069)" fill="#49648e"/>
      <path id="Trazado_1033261" data-name="Trazado 1033261" d="M356.339,271.1l4.917,2.81.71-8.522L358.553,264Z" transform="translate(-318.006 -236.069)" fill="#49648e"/>
      <path id="Trazado_1033262" data-name="Trazado 1033262" d="M187.6,395.713h2.7l17.118-3.6h4.5l1.8-1.8h4.5V384h-4.5l-6.307,2.7L184,388.5v3.6A3.6,3.6,0,0,0,187.6,395.713Z" transform="translate(-165.076 -342.555)" fill="#feb784"/>
      <path id="Trazado_1033263" data-name="Trazado 1033263" d="M214.633,395.713h-2.7l-17.118-3.6h-4.5l-1.8-1.8H184V384h4.5l6.307,2.7,23.425,1.8v3.6A3.6,3.6,0,0,1,214.633,395.713Z" transform="translate(-165.076 -342.555)" fill="#fec9a3"/>
      <path id="Trazado_1033264" data-name="Trazado 1033264" d="M408.9,128H408v5.406h.9a2.7,2.7,0,1,0,0-5.406Z" transform="translate(-363.849 -115.386)" fill="#feb784"/>
      <path id="Trazado_1033265" data-name="Trazado 1033265" d="M234.748,128H234.7a2.7,2.7,0,1,0,0,5.406h.9V128Z" transform="translate(-207.671 -115.386)" fill="#feb784"/>
      <path id="Trazado_1033266" data-name="Trazado 1033266" d="M280.217,56.109v6.307a8.109,8.109,0,0,1-8.108,8.109,8.319,8.319,0,0,1-.843-.043A8.111,8.111,0,0,1,264,62.415V56.109A8.109,8.109,0,0,1,272.108,48q.339,0,.67.027h0A8.109,8.109,0,0,1,280.217,56.109Z" transform="translate(-236.067 -44.395)" fill="#fec9a3"/>
      <path id="Trazado_1033267" data-name="Trazado 1033267" d="M337.469,56.331v6.307a8.109,8.109,0,0,1-8.108,8.109,8.323,8.323,0,0,1-.843-.043,9.91,9.91,0,0,0,5.685-8.967V56.331a9.922,9.922,0,0,0-4.173-8.081A8.109,8.109,0,0,1,337.469,56.331Z" transform="translate(-293.319 -44.617)" fill="#fec093"/>
      <path id="Trazado_1033268" data-name="Trazado 1033268" d="M268.257,52.635a19.636,19.636,0,0,0,7.7,0l.653-.13,3.6,4.2v-.6a8.109,8.109,0,1,0-16.217,0v.6l3.6-4.2Z" transform="translate(-236.067 -44.395)" fill="#7a432a"/>
      <path id="Trazado_1033269" data-name="Trazado 1033269" d="M313.908,182.062H312v-1.8h1.908a11.158,11.158,0,0,0,3.237-.475l.523,1.725A12.953,12.953,0,0,1,313.908,182.062Z" transform="translate(-278.661 -161.339)" fill="#f7a468"/>
      <circle id="Elipse_11507" data-name="Elipse 11507" cx="1.351" cy="1.351" r="1.351" transform="translate(38.745 13.515)" fill="#7a432a"/>
      <circle id="Elipse_11508" data-name="Elipse 11508" cx="1.351" cy="1.351" r="1.351" transform="translate(30.636 13.515)" fill="#7a432a"/>
      <path id="Trazado_1033270" data-name="Trazado 1033270" d="M272.68,105.02a2.735,2.735,0,0,1-3.184,2.687l-2.471-.412a21.66,21.66,0,0,0-7.109,0l-2.471.412A2.731,2.731,0,0,1,254.462,104h18.019A2.743,2.743,0,0,1,272.68,105.02Z" transform="translate(-227.429 -94.089)" fill="#49648e"/>
      <path id="Trazado_1033271" data-name="Trazado 1033271" d="M274.019,29.406v3.6H256v-3.6A5.406,5.406,0,0,1,261.406,24h7.208a5.4,5.4,0,0,1,1.71.277c.1.034.2.07.3.109a5.4,5.4,0,0,1,3.4,5.02Z" transform="translate(-228.968 -23.098)" fill="#425b82"/>
      <path id="Trazado_1033272" data-name="Trazado 1033272" d="M295.316,32.45v3.6H280a23.933,23.933,0,0,0,11.916-8.623A5.4,5.4,0,0,1,295.316,32.45Z" transform="translate(-250.265 -26.142)" fill="#3c5174"/>
      <path id="Trazado_1033273" data-name="Trazado 1033273" d="M304,72h7.208v3.6H304Z" transform="translate(-271.562 -65.692)" fill="#e0e0de"/>
      <path id="Trazado_1033274" data-name="Trazado 1033274" d="M304,88h7.208v1.8H304Z" transform="translate(-271.562 -79.891)" fill="#d6d6d4"/>
      <path id="Trazado_1033275" data-name="Trazado 1033275" d="M355.006,105.02a2.735,2.735,0,0,1-3.184,2.687l-2.471-.412a21.55,21.55,0,0,0-2.311-.258,12.93,12.93,0,0,0,4.6-3.037h3.17A2.743,2.743,0,0,1,355.006,105.02Z" transform="translate(-309.755 -94.089)" fill="#425b82"/>
      <path id="Trazado_1033276" data-name="Trazado 1033276" d="M64.619,45.068l-4.456-.634-2.744-1.116v-2.1a8.954,8.954,0,0,0,3.559-6.3h.045A3.6,3.6,0,0,0,62,27.844a3.588,3.588,0,0,0-.08-2.1V22.3a6.307,6.307,0,0,0-6.307-6.307H48.409A6.307,6.307,0,0,0,42.1,22.3v3.447a3.588,3.588,0,0,0-.08,2.1A3.6,3.6,0,0,0,43,34.915h.045a8.955,8.955,0,0,0,3.559,6.3v2.14L43.815,44.7l-4.841,1.032a6.36,6.36,0,0,0-4.943,5.5,10.9,10.9,0,0,0-1.839-1.345V36.162a10.784,10.784,0,0,0,4.875-12.69.9.9,0,0,0-1.491-.359L29.76,28.883a1.306,1.306,0,0,1-.92.374,1.277,1.277,0,0,1-.895-.376l-3.234-3.235a1.277,1.277,0,0,1-.376-.894,1.3,1.3,0,0,1,.369-.915l5.775-5.82a.9.9,0,0,0-.36-1.491,10.805,10.805,0,0,0-8.74,19.636V49.885a10.784,10.784,0,0,0-4.875,12.69A.9.9,0,0,0,18,62.935l5.816-5.771a1.306,1.306,0,0,1,.92-.374,1.277,1.277,0,0,1,.895.376L28.861,60.4a1.277,1.277,0,0,1,.376.895,1.3,1.3,0,0,1-.369.915l-5.775,5.82a.9.9,0,0,0,.36,1.491,10.906,10.906,0,0,0,10.794-2.49A4.512,4.512,0,0,0,38.5,70.052h2.7c.063,0,9.911-2.071,9.911-2.071v2.071h1.8V67.986l9.725,2.047a.908.908,0,0,0,.186.019h2.7a4.51,4.51,0,0,0,4.5-4.5V51.312a6.35,6.35,0,0,0-5.414-6.244ZM52.013,54.757l-1.3-3.625h2.59Zm-3.6-12.49a8.965,8.965,0,0,0,7.208,0v1.52L53.889,49.33h-3.75l-1.729-5.543Zm6.994,8.26,1.683-5.4,1.892.77-.538,6.453-3.033-1.733.029-.08Zm.313-22.215a22.477,22.477,0,0,0-7.406,0l-2.471.412a1.833,1.833,0,0,1-2.129-1.917H60.316a1.833,1.833,0,0,1-2.129,1.917Zm-1-3.308H49.31V23.2h5.406Zm8.109,6.307a1.806,1.806,0,0,1-1.8,1.8V29.52l.011-.01a1.8,1.8,0,0,1,1.791,1.8ZM43.9,22.3a4.5,4.5,0,0,1,4.5-4.5h7.208a4.5,4.5,0,0,1,4.5,4.5V25h-3.6V22.3a.9.9,0,0,0-.9-.9H48.409a.9.9,0,0,0-.9.9V25H43.9ZM41.731,32.583a1.8,1.8,0,0,1,1.264-3.075l.009.009v3.595A1.814,1.814,0,0,1,41.731,32.583Zm3.075,1.43V30.479a3.667,3.667,0,0,0,1.33.022l.551-.092a1.351,1.351,0,1,0,2.333-.384,20.669,20.669,0,0,1,5.988,0,1.352,1.352,0,1,0,2.333.384l.551.092a4.623,4.623,0,0,0,1.33-.021v3.534a7.208,7.208,0,1,1-14.415,0Zm2.153,11.174,1.664,5.335-.034.012.031.084-3.033,1.733L45.065,46.1Zm-7.605,2.3,3.949-.842.605,7.261a.9.9,0,0,0,.478.722,1.718,1.718,0,0,0,.867-.015l3.985-2.277,1.875,5.255v2.059l-5.188-.4L42.1,57.617V53.835H40.3v3.01l-.546-.234a.9.9,0,0,0-.355-.073H35.8V51.9A4.54,4.54,0,0,1,39.353,47.49ZM27.9,68.185a9.108,9.108,0,0,1-2.4-.026l4.647-4.684a3.1,3.1,0,0,0,.888-2.18,3.05,3.05,0,0,0-.9-2.169L26.9,55.892a3.05,3.05,0,0,0-2.169-.9,3.1,3.1,0,0,0-2.185.892l-4.678,4.643a8.994,8.994,0,0,1,4.823-9.3.9.9,0,0,0,.491-.8V35.626a.9.9,0,0,0-.49-.8,9,9,0,0,1,5.377-16.936l-4.647,4.684a3.1,3.1,0,0,0-.888,2.18,3.05,3.05,0,0,0,.9,2.169l3.234,3.234a3.05,3.05,0,0,0,2.169.9,3.1,3.1,0,0,0,2.184-.892L35.7,25.524a8.994,8.994,0,0,1-4.823,9.3.9.9,0,0,0-.491.8V50.42a.9.9,0,0,0,.49.8,9.122,9.122,0,0,1,3.114,2.627V64.6a9.036,9.036,0,0,1-6.09,3.583Zm13.2.066H38.5a2.706,2.706,0,0,1-2.7-2.7v-.9h3.231l1.538,1.538a.9.9,0,0,0,.637.264h4.411l2.02.425Zm27.123-2.7a2.706,2.706,0,0,1-2.7,2.7H62.919L45.892,64.666c-.061-.013-4.317-.019-4.317-.019l-1.538-1.538a.9.9,0,0,0-.637-.264H35.8v-4.5h3.419s6.324,2.693,6.423,2.7l22.593,1.738Zm0-4.577-8.1-.623,4.683-2.008h3.418Zm0-4.433h-3.6a7.58,7.58,0,0,0-.9.308V53.835h-1.8v2.7H54.716v1.8h5.524l-2.138.915-5.188.4V57.595l1.875-5.255,3.985,2.277a.9.9,0,0,0,1.345-.707l.631-7.572,3.612.514a4.538,4.538,0,0,1,3.869,4.46Z" transform="translate(-15.971 -15.993)"/>
      <path id="Trazado_1033277" data-name="Trazado 1033277" d="M296,368h1.8v1.8H296Z" transform="translate(-264.463 -328.357)"/>
      <path id="Trazado_1033278" data-name="Trazado 1033278" d="M317.667,181.512l-.522-1.725a11.157,11.157,0,0,1-3.238.474H312v1.8h1.907A12.955,12.955,0,0,0,317.667,181.512Z" transform="translate(-278.661 -161.34)"/>
      <path id="Trazado_1033279" data-name="Trazado 1033279" d="M104,184h1.8v16.217H104Z" transform="translate(-94.086 -165.079)"/>
    </g>
  </g>
</svg>
